<?xml version="1.0" standalone="no"?>
<!DOCTYPE svg PUBLIC "-//W3C//DTD SVG 20010904//EN"
 "http://www.w3.org/TR/2001/REC-SVG-20010904/DTD/svg10.dtd">
<svg version="1.0" xmlns="http://www.w3.org/2000/svg"
 width="500.000000pt" height="500.000000pt" viewBox="0 0 500.000000 500.000000"
 preserveAspectRatio="xMidYMid meet" class="t">

<g transform="translate(0.000000,500.000000) scale(0.100000,-0.100000)"
 stroke="none">
<path d="M2332 3361 c-182 -53 -341 -185 -417 -346 -32 -68 -31 -75 3 -74 23
0 31 8 54 57 91 190 318 332 533 332 122 0 280 -57 382 -138 60 -48 120 -123
158 -199 22 -46 30 -53 55 -53 28 0 29 1 19 28 -44 116 -162 256 -272 321
-112 66 -178 84 -322 87 -104 3 -142 0 -193 -15z"/>
<path d="M2445 2923 l-227 -298 104 -5 105 -5 -49 -179 c-26 -98 -47 -181 -44
-183 2 -2 103 125 225 284 l220 288 -105 3 c-99 3 -105 4 -99 22 13 39 102
370 100 370 -1 0 -104 -134 -230 -297z"/>
<path d="M2427 3150 c-77 -13 -172 -64 -230 -122 -172 -172 -165 -446 14 -612
33 -31 64 -54 68 -51 5 2 11 18 14 35 6 26 1 35 -38 71 -55 51 -103 145 -111
219 -20 178 119 363 291 387 35 4 50 13 69 38 36 47 25 52 -77 35z"/>
<path d="M2706 3058 c-5 -27 -2 -35 28 -60 46 -38 91 -111 111 -182 33 -113 0
-238 -86 -331 -49 -53 -98 -81 -183 -105 -45 -13 -66 -25 -85 -50 l-26 -33 73
6 c215 18 391 209 392 422 0 71 -25 160 -63 224 -32 53 -121 141 -143 141 -6
0 -14 -14 -18 -32z"/>
<path d="M1520 2800 l21 -30 200 0 199 0 0 30 0 30 -221 0 -220 0 21 -30z"/>
<path d="M3057 2823 c-4 -3 -7 -17 -7 -30 l0 -23 203 0 203 0 22 30 23 30
-219 0 c-120 0 -222 -3 -225 -7z"/>
<path d="M1590 2715 c23 -25 26 -25 187 -25 l163 0 0 25 0 25 -187 0 -186 0
23 -25z"/>
<path d="M3050 2715 l0 -25 168 0 c151 0 171 2 185 18 10 10 17 22 17 25 0 4
-83 7 -185 7 l-185 0 0 -25z"/>
<path d="M1657 2635 c18 -24 21 -24 151 -25 l132 0 0 25 0 25 -150 0 -151 0
18 -25z"/>
<path d="M3050 2635 l0 -25 138 0 c134 1 137 1 155 25 l18 25 -156 0 -155 0 0
-25z"/>
<path d="M1900 2474 c0 -3 15 -34 32 -68 43 -80 174 -211 253 -253 97 -50 178
-73 284 -80 195 -11 358 52 497 191 72 73 144 175 144 205 0 6 -12 11 -27 11
-24 -1 -34 -10 -63 -61 -71 -124 -220 -236 -365 -274 -77 -20 -220 -19 -299 1
-143 37 -303 158 -372 281 -24 44 -34 53 -56 53 -16 0 -28 -3 -28 -6z"/>
</g>
</svg>
